<svg width="62" height="61" viewBox="0 0 62 61" fill="none" xmlns="http://www.w3.org/2000/svg">
<path d="M30.9217 0C14.1305 0 0.515625 13.6149 0.515625 30.4061C0.515625 47.1973 14.1305 60.8121 30.9217 60.8121C47.7129 60.8121 61.3278 47.1973 61.3278 30.4061C61.3278 13.6149 47.7129 0 30.9217 0ZM48.2966 17.2188L45.5275 19.8725C45.2831 20.0558 45.1677 20.3544 45.2153 20.6463V40.1727C45.1677 40.4713 45.2831 40.7699 45.5275 40.9464L48.2423 43.6001V44.1906H34.6139V43.6273L37.4169 40.9057C37.6952 40.6274 37.6952 40.5459 37.6952 40.1319V24.3316L29.8901 44.1227H28.8381L19.757 24.3316V37.6004C19.6755 38.1569 19.8723 38.7202 20.266 39.1207L23.9174 43.539V44.1295H13.5468V43.539L17.1982 39.1207C17.3906 38.9219 17.5338 38.6809 17.6163 38.4169C17.6988 38.1529 17.7183 37.8733 17.6733 37.6004V22.2616C17.7208 21.834 17.558 21.42 17.2322 21.1281L13.988 17.2188V16.6283H24.0668L31.8447 33.6978L38.6929 16.6419H48.2966V17.2188Z" fill="white"/>
</svg>
