<svg width="65" height="46" viewBox="0 0 65 46" fill="none" xmlns="http://www.w3.org/2000/svg">
<path d="M54.2878 4.25752C50.2079 2.53263 45.8347 1.25772 41.2615 0.532766C41.2207 0.525436 41.1786 0.530159 41.1408 0.546283C41.1031 0.562407 41.0716 0.589133 41.0508 0.62276C40.4908 1.5452 39.8668 2.74762 39.4295 3.69756C34.5793 3.01819 29.6482 3.01819 24.7979 3.69756C24.3108 2.64478 23.7616 1.61825 23.1527 0.62276C23.132 0.588719 23.1008 0.561388 23.0632 0.544415C23.0255 0.527442 22.9832 0.521634 22.942 0.527766C18.3715 1.25272 13.9983 2.52763 9.91571 4.25502C9.88058 4.26883 9.85081 4.29238 9.83038 4.32252C1.53195 15.7593 -0.742652 26.9135 0.374649 37.9278C0.377758 37.9548 0.38669 37.9809 0.400901 38.0045C0.415113 38.0282 0.434306 38.0488 0.457313 38.0653C5.30089 41.3711 10.7032 43.8895 16.4382 45.5148C16.4782 45.5264 16.5209 45.5263 16.5609 45.5147C16.6008 45.5031 16.6361 45.4805 16.6622 45.4498C17.8963 43.9026 18.9898 42.2611 19.9314 40.5426C19.9445 40.5191 19.952 40.4933 19.9535 40.4668C19.955 40.4404 19.9504 40.4139 19.94 40.3893C19.9297 40.3646 19.9138 40.3423 19.8934 40.3239C19.8731 40.3055 19.8487 40.2915 19.8221 40.2827C18.0995 39.6745 16.4304 38.9406 14.8302 38.0878C14.8015 38.0724 14.7772 38.0506 14.7597 38.0242C14.7422 37.9979 14.7319 37.9679 14.7298 37.9369C14.7277 37.906 14.7338 37.875 14.7476 37.8468C14.7614 37.8186 14.7825 37.794 14.8089 37.7753C15.1449 37.5428 15.4809 37.3004 15.8009 37.0579C15.8297 37.0361 15.8644 37.0222 15.9011 37.0178C15.9378 37.0134 15.9751 37.0186 16.0089 37.0329C26.4806 41.4426 37.8216 41.4426 48.1706 37.0329C48.2044 37.0177 48.2421 37.0118 48.2794 37.0158C48.3166 37.0198 48.3519 37.0335 48.3813 37.0554C48.7013 37.3003 49.0346 37.5428 49.3732 37.7753C49.3999 37.7936 49.4213 37.8178 49.4356 37.8458C49.4498 37.8738 49.4565 37.9046 49.4549 37.9356C49.4533 37.9665 49.4435 37.9967 49.4265 38.0232C49.4095 38.0498 49.3857 38.072 49.3572 38.0878C47.7626 38.9477 46.104 39.6752 44.3627 40.2802C44.336 40.2893 44.3116 40.3036 44.2913 40.3222C44.2709 40.3409 44.255 40.3633 44.2447 40.3882C44.2343 40.413 44.2297 40.4397 44.2312 40.4663C44.2327 40.4929 44.2403 40.519 44.2534 40.5426C45.2134 42.26 46.312 43.8949 47.52 45.4473C47.5451 45.4792 47.5801 45.503 47.6201 45.5155C47.6602 45.528 47.7035 45.5287 47.744 45.5173C53.4887 43.8965 58.8999 41.377 63.7488 38.0653C63.7725 38.0498 63.7923 38.0297 63.807 38.0065C63.8218 37.9832 63.831 37.9572 63.8341 37.9303C65.1674 25.1961 61.5995 14.1319 54.3704 4.32752C54.3527 4.29566 54.3234 4.27082 54.2878 4.25752ZM21.4967 31.2208C18.3448 31.2208 15.7449 28.5484 15.7449 25.2711C15.7449 21.9914 18.2941 19.3215 21.4967 19.3215C24.7233 19.3215 27.2992 22.0139 27.2485 25.2711C27.2485 28.5509 24.6993 31.2208 21.4967 31.2208ZM42.7628 31.2208C39.6082 31.2208 37.0109 28.5484 37.0109 25.2711C37.0109 21.9914 39.5575 19.3215 42.7628 19.3215C45.9893 19.3215 48.5653 22.0139 48.5146 25.2711C48.5146 28.5509 45.992 31.2208 42.7628 31.2208Z" fill="white"/>
</svg>
