<svg width="58" height="58" viewBox="0 0 58 58" fill="none" xmlns="http://www.w3.org/2000/svg">
<path fill-rule="evenodd" clip-rule="evenodd" d="M57.6972 29.0107C57.6972 44.8 44.8957 57.6015 29.1064 57.6015C13.3171 57.6015 0.515625 44.8 0.515625 29.0107C0.515625 13.2214 13.3171 0.419922 29.1064 0.419922C44.8957 0.419922 57.6972 13.2214 57.6972 29.0107ZM47.4236 26.7663C47.8858 27.4263 48.1479 28.2054 48.1764 29.0107C48.1889 29.7985 47.978 30.5738 47.5682 31.2467C47.1583 31.9197 46.5663 32.4628 45.8606 32.8133C45.894 33.2326 45.894 33.6519 45.8606 34.0713C45.8606 40.4756 38.3984 45.6791 29.1922 45.6791C19.9859 45.6791 12.5238 40.4756 12.5238 34.0713C12.4916 33.6526 12.4916 33.232 12.5238 32.8133C11.9786 32.5581 11.4951 32.1878 11.1066 31.728C10.7181 31.2682 10.4337 30.7297 10.2731 30.1495C10.1125 29.5694 10.0794 28.9613 10.1761 28.3672C10.2729 27.773 10.4971 27.2068 10.8334 26.7076C11.1697 26.2083 11.6102 25.7878 12.1245 25.4749C12.6387 25.1621 13.2147 24.9643 13.8127 24.8951C14.4107 24.826 15.0165 24.8872 15.5886 25.0745C16.1607 25.2618 16.6855 25.5707 17.1269 25.9801C20.4213 23.7458 24.2971 22.5234 28.2773 22.4634L30.393 12.5424C30.4167 12.4276 30.4631 12.3186 30.5293 12.2217C30.5955 12.1249 30.6802 12.0422 30.7786 11.9784C30.877 11.9146 30.9871 11.8709 31.1025 11.8499C31.2179 11.829 31.3363 11.8311 31.4508 11.8562L38.4556 13.2572C38.7977 12.6695 39.338 12.2229 39.9797 11.9977C40.6213 11.7725 41.3222 11.7833 41.9566 12.0283C42.5909 12.2733 43.1172 12.7364 43.4409 13.3344C43.7646 13.9324 43.8646 14.6263 43.7229 15.2913C43.5811 15.9564 43.207 16.5492 42.6676 16.9633C42.1281 17.3774 41.4588 17.5857 40.7797 17.5507C40.1006 17.5158 39.4561 17.2399 38.9621 16.7727C38.468 16.3054 38.1566 15.6773 38.0839 15.0012L31.9655 13.7146L30.1071 22.635C34.0389 22.7193 37.8621 23.9407 41.1145 26.1516C41.5487 25.7342 42.0681 25.4157 42.6371 25.2181C43.2061 25.0204 43.8111 24.9483 44.4105 25.0067C45.01 25.0651 45.5897 25.2527 46.1098 25.5564C46.63 25.8602 47.0781 26.2729 47.4236 26.7663ZM20.067 30.2806C19.8583 30.5929 19.7131 30.9432 19.6398 31.3115C19.5665 31.6799 19.5665 32.0591 19.6397 32.4274C19.7876 33.1714 20.2249 33.8261 20.8556 34.2476C21.4862 34.6691 22.2584 34.8227 23.0024 34.6748C23.3708 34.6016 23.7211 34.4566 24.0334 34.2479C24.3457 34.0393 24.6139 33.7712 24.8225 33.4589C25.244 32.8283 25.3977 32.0561 25.2498 31.3121C25.1019 30.5682 24.6646 29.9135 24.0339 29.492C23.4033 29.0705 22.6311 28.9168 21.8871 29.0647C21.1432 29.2126 20.4884 29.65 20.067 30.2806ZM29.135 41.9337C31.6724 42.0386 34.1694 41.3762 36.1969 39.8466C36.3486 39.6987 36.4353 39.4967 36.438 39.2849C36.4406 39.0731 36.3591 38.8689 36.2112 38.7173C36.138 38.6422 36.0507 38.5822 35.9543 38.5409C35.858 38.4995 35.7544 38.4776 35.6495 38.4762C35.4377 38.4735 35.2335 38.5551 35.0819 38.703C33.3467 39.9477 31.2387 40.563 29.1064 40.447C26.9767 40.5422 24.8785 39.9066 23.1595 38.6458C23.0114 38.5242 22.8233 38.4621 22.6319 38.4715C22.4405 38.4809 22.2594 38.5611 22.1239 38.6967C21.9884 38.8322 21.9082 39.0132 21.8988 39.2046C21.8894 39.396 21.9515 39.5841 22.0731 39.7322C24.1015 41.2609 26.5972 42.0389 29.135 41.9337ZM34.0931 34.3619C34.5649 34.6764 35.089 34.9576 35.6537 34.9576C36.0415 34.9621 36.4261 34.8876 36.7842 34.7387C37.1422 34.5898 37.4662 34.3695 37.7364 34.0913C38.0066 33.8131 38.2173 33.4828 38.3557 33.1205C38.494 32.7583 38.5572 32.3716 38.5414 31.9841C38.5412 31.4903 38.4131 31.0049 38.1695 30.5753C37.926 30.1456 37.5753 29.7864 37.1516 29.5326C36.728 29.2788 36.2458 29.139 35.7521 29.127C35.2584 29.1149 34.77 29.2309 34.3344 29.4638C33.8989 29.6966 33.5311 30.0382 33.2669 30.4555C33.0026 30.8727 32.851 31.3512 32.8267 31.8445C32.8024 32.3378 32.9062 32.8289 33.1282 33.2701C33.3501 33.7113 33.6826 34.0874 34.0931 34.3619Z" fill="white"/>
</svg>
