<svg width="63" height="63" viewBox="0 0 63 63" fill="none" xmlns="http://www.w3.org/2000/svg">
<path fill-rule="evenodd" clip-rule="evenodd" d="M19.1216 0.790628C22.4124 0.639134 23.4616 0.605469 31.8443 0.605469C40.2269 0.605469 41.2762 0.641939 44.5642 0.790628C47.8521 0.939317 50.0965 1.46393 52.0603 2.22421C54.1167 3.00132 55.9823 4.21608 57.5253 5.78712C59.0964 7.32731 60.3083 9.19013 61.0826 11.2493C61.8457 13.2131 62.3675 15.4575 62.519 18.7399C62.6705 22.0363 62.7042 23.0855 62.7042 31.4654C62.7042 39.848 62.6677 40.8973 62.519 44.188C62.3703 47.4704 61.8457 49.7148 61.0826 51.6786C60.3083 53.738 59.0943 55.604 57.5253 57.1464C55.9823 58.7174 54.1167 59.9294 52.0603 60.7037C50.0965 61.4668 47.8521 61.9886 44.5698 62.1401C41.2762 62.2916 40.2269 62.3252 31.8443 62.3252C23.4616 62.3252 22.4124 62.2888 19.1216 62.1401C15.8392 61.9914 13.5948 61.4668 11.631 60.7037C9.57162 59.9293 7.70572 58.7154 6.16323 57.1464C4.59324 55.6053 3.3783 53.7403 2.60312 51.6814C1.84284 49.7176 1.32103 47.4732 1.16953 44.1909C1.01804 40.8945 0.984375 39.8452 0.984375 31.4654C0.984375 23.0827 1.02085 22.0335 1.16953 18.7455C1.31822 15.4575 1.84284 13.2131 2.60312 11.2493C3.37945 9.19036 4.59532 7.32539 6.16603 5.78432C7.70633 4.21468 9.57036 2.99976 11.6282 2.22421C13.592 1.46393 15.8364 0.942122 19.1188 0.790628H19.1216ZM44.3145 6.34541C41.0602 6.19672 40.0839 6.16586 31.8443 6.16586C23.6047 6.16586 22.6284 6.19672 19.3741 6.34541C16.3638 6.48287 14.7311 6.98505 13.6425 7.40867C12.2033 7.96976 11.1737 8.63465 10.0937 9.71475C9.06979 10.7108 8.28184 11.9234 7.78758 13.2636C7.36396 14.3521 6.86178 15.9849 6.72431 18.9952C6.57563 22.2495 6.54477 23.2258 6.54477 31.4654C6.54477 39.7049 6.57563 40.6812 6.72431 43.9356C6.86178 46.9458 7.36396 48.5786 7.78758 49.6671C8.28134 51.0053 9.06967 52.22 10.0937 53.216C11.0896 54.24 12.3043 55.0283 13.6425 55.522C14.7311 55.9457 16.3638 56.4478 19.3741 56.5853C22.6284 56.734 23.6019 56.7649 31.8443 56.7649C40.0867 56.7649 41.0602 56.734 44.3145 56.5853C47.3247 56.4478 48.9575 55.9457 50.046 55.522C51.4852 54.961 52.5148 54.2961 53.5949 53.216C54.6189 52.22 55.4072 51.0053 55.901 49.6671C56.3246 48.5786 56.8267 46.9458 56.9642 43.9356C57.1129 40.6812 57.1438 39.7049 57.1438 31.4654C57.1438 23.2258 57.1129 22.2495 56.9642 18.9952C56.8267 15.9849 56.3246 14.3521 55.901 13.2636C55.3399 11.8244 54.675 10.7948 53.5949 9.71475C52.5987 8.69096 51.3862 7.90302 50.046 7.40867C48.9575 6.98505 47.3247 6.48287 44.3145 6.34541ZM27.9026 40.9786C30.1039 41.895 32.5551 42.0186 34.8375 41.3285C37.1198 40.6384 39.0918 39.1773 40.4166 37.1948C41.7414 35.2122 42.3368 32.8312 42.1011 30.4585C41.8654 28.0857 40.8133 25.8684 39.1244 24.1852C38.0478 23.1093 36.746 22.2854 35.3127 21.773C33.8795 21.2605 32.3504 21.0722 30.8357 21.2216C29.3209 21.371 27.8582 21.8544 26.5526 22.637C25.2471 23.4196 24.1314 24.4819 23.2857 25.7474C22.44 27.013 21.8855 28.4503 21.6619 29.9559C21.4384 31.4615 21.5515 32.998 21.9931 34.4546C22.4346 35.9113 23.1936 37.2519 24.2155 38.38C25.2373 39.5081 26.4966 40.3956 27.9026 40.9786ZM20.6281 20.2492C22.101 18.7763 23.8496 17.6079 25.7741 16.8107C27.6986 16.0136 29.7612 15.6033 31.8443 15.6033C33.9273 15.6033 35.9899 16.0136 37.9144 16.8107C39.8389 17.6079 41.5875 18.7763 43.0604 20.2492C44.5334 21.7221 45.7017 23.4707 46.4989 25.3952C47.296 27.3197 47.7063 29.3823 47.7063 31.4654C47.7063 33.5484 47.296 35.611 46.4989 37.5355C45.7017 39.46 44.5334 41.2086 43.0604 42.6815C40.0857 45.6562 36.0511 47.3274 31.8443 47.3274C27.6374 47.3274 23.6028 45.6562 20.6281 42.6815C17.6534 39.7068 15.9822 35.6722 15.9822 31.4654C15.9822 27.2585 17.6534 23.2239 20.6281 20.2492ZM51.2243 17.9656C51.5893 17.6212 51.8815 17.2072 52.0836 16.7479C52.2857 16.2887 52.3936 15.7935 52.4009 15.2918C52.4082 14.7901 52.3148 14.292 52.1262 13.827C51.9375 13.362 51.6575 12.9396 51.3027 12.5848C50.9479 12.23 50.5255 11.95 50.0606 11.7614C49.5956 11.5727 49.0975 11.4793 48.5958 11.4866C48.094 11.4939 47.5989 11.6018 47.1396 11.804C46.6804 12.0061 46.2663 12.2983 45.922 12.6633C45.2524 13.3731 44.8857 14.316 44.9 15.2918C44.9142 16.2675 45.3081 17.1993 45.9982 17.8894C46.6882 18.5794 47.62 18.9734 48.5958 18.9876C49.5715 19.0018 50.5144 18.6352 51.2243 17.9656Z" fill="white"/>
</svg>
