<svg width="65" height="44" viewBox="0 0 65 44" fill="none" xmlns="http://www.w3.org/2000/svg">
<path d="M63.4097 6.82057C63.0448 5.51901 62.3341 4.34064 61.3531 3.41073C60.3443 2.45222 59.1079 1.76658 57.7606 1.41852C52.7184 0.0894858 32.517 0.0894861 32.517 0.0894861C24.0954 -0.00633151 15.6757 0.415098 7.30568 1.3514C5.95836 1.72517 4.7243 2.42613 3.71326 3.39193C2.71984 4.34776 2.00028 5.52644 1.6244 6.81789C0.72144 11.6823 0.282722 16.6214 0.314157 21.5688C0.281938 26.5118 0.719579 31.4493 1.6244 36.3198C1.99223 37.6058 2.7091 38.7791 3.70521 39.7269C4.70131 40.6747 5.94174 41.3593 7.30568 41.7218C12.4151 43.0482 32.517 43.0482 32.517 43.0482C40.9495 43.1441 49.3798 42.7227 57.7606 41.7862C59.1079 41.4382 60.3443 40.7525 61.3531 39.794C62.3338 38.8643 63.0437 37.6858 63.407 36.3842C64.3335 31.5217 64.7841 26.5805 64.7522 21.6306C64.8218 16.6597 64.3719 11.6952 63.4097 6.81789V6.82057ZM26.0947 30.762V12.3784L42.9023 21.5715L26.0947 30.762Z" fill="white"/>
</svg>
