<svg width="71" height="61" viewBox="0 0 71 61" fill="none" xmlns="http://www.w3.org/2000/svg">
<path d="M71 7.64249C68.389 8.84518 65.5842 9.65782 62.6355 10.0251C65.678 8.13264 67.9542 5.1541 69.0394 1.64526C66.1809 3.41026 63.0524 4.65263 59.79 5.31836C57.5961 2.88327 54.6901 1.26926 51.5234 0.726899C48.3566 0.184541 45.1062 0.744184 42.2768 2.31894C39.4474 3.8937 37.1972 6.39546 35.8757 9.43582C34.5542 12.4762 34.2353 15.885 34.9684 19.1331C29.1764 18.8308 23.5102 17.2658 18.3376 14.5398C13.1651 11.8138 8.60168 7.98757 4.94367 3.30953C3.6929 5.5524 2.97371 8.15282 2.97371 10.9223C2.97231 13.4154 3.56292 15.8704 4.69314 18.0693C5.82335 20.2683 7.45823 22.1432 9.4527 23.5278C7.13964 23.4513 4.87761 22.8016 2.85488 21.6328V21.8278C2.85465 25.3245 4.0182 28.7137 6.14811 31.4201C8.27802 34.1266 11.2431 35.9836 14.5402 36.6762C12.3945 37.2799 10.1448 37.3688 7.96116 36.9363C8.89141 39.945 10.7035 42.576 13.1436 44.461C15.5838 46.346 18.5299 47.3906 21.5695 47.4485C16.4096 51.6593 10.0371 53.9433 3.47714 53.9333C2.31512 53.9336 1.15407 53.8631 0 53.722C6.65872 58.1726 14.4099 60.5345 22.3263 60.5254C49.124 60.5254 63.7737 37.4531 63.7737 17.4428C63.7737 16.7927 63.758 16.1361 63.7299 15.486C66.5794 13.3438 69.0391 10.6911 70.9938 7.65224L71 7.64249Z" fill="white"/>
</svg>
