<svg width="36" height="24" viewBox="0 0 36 24" fill="none" xmlns="http://www.w3.org/2000/svg">
<path d="M34.6304 3.70161C34.4302 2.98726 34.0401 2.34052 33.5017 1.83015C32.948 1.30408 32.2694 0.927769 31.53 0.736738C28.7626 0.00730724 17.6752 0.0073074 17.6752 0.0073074C13.053 -0.0452814 8.43199 0.186017 3.83816 0.699898C3.09869 0.905042 2.42139 1.28976 1.86648 1.81983C1.32125 2.34443 0.926328 2.99134 0.720025 3.70014C0.224444 6.36992 -0.0163434 9.08075 0.000909479 11.7961C-0.0167737 14.509 0.223423 17.2189 0.720025 19.892C0.921907 20.5979 1.31536 21.2418 1.86206 21.762C2.40877 22.2822 3.08957 22.658 3.83816 22.8569C6.64241 23.5849 17.6752 23.5849 17.6752 23.5849C22.3033 23.6375 26.9302 23.4062 31.53 22.8923C32.2694 22.7012 32.948 22.3249 33.5017 21.7989C34.0399 21.2886 34.4295 20.6418 34.629 19.9274C35.1375 17.2586 35.3847 14.5467 35.3672 11.83C35.4055 9.10176 35.1585 6.37702 34.6304 3.70014V3.70161ZM14.1504 16.8417V6.75196L23.3751 11.7976L14.1504 16.8417Z" fill="url(#paint0_linear_39_727)"/>
<defs>
<linearGradient id="paint0_linear_39_727" x1="6.72674e-07" y1="0.786405" x2="34.5116" y2="21.8899" gradientUnits="userSpaceOnUse">
<stop offset="0.0418119" stop-color="#BDD4DC"/>
<stop offset="0.574085" stop-color="#C7DEDB"/>
<stop offset="0.913435" stop-color="#EBE4D4"/>
</linearGradient>
</defs>
</svg>
