<svg width="38" height="38" viewBox="0 0 38 38" fill="none" xmlns="http://www.w3.org/2000/svg">
<path d="M19 0C29.4924 0 38 8.50759 38 19C38 29.4924 29.4924 38 19 38C8.50759 38 0 29.4924 0 19C0 8.50759 8.50759 0 19 0ZM8.14286 10.7596L9.87321 12.4179C10.0259 12.5324 10.098 12.719 10.0683 12.9013V25.1029C10.098 25.2895 10.0259 25.4761 9.87321 25.5864L8.17679 27.2446V27.6136H16.6929V27.2616L14.9413 25.5609C14.7674 25.3871 14.7674 25.3362 14.7674 25.0775V15.2042L19.6446 27.5712H20.302L25.9766 15.2042V23.4955C26.0275 23.8433 25.9045 24.1953 25.6585 24.4455L23.3768 27.2065V27.5754H29.8571V27.2065L27.5754 24.4455C27.4552 24.3214 27.3658 24.1708 27.3142 24.0058C27.2627 23.8408 27.2505 23.6661 27.2786 23.4955V13.9107C27.2489 13.6435 27.3507 13.3848 27.5542 13.2025L29.5815 10.7596V10.3906H23.2835L18.4232 21.0569L14.144 10.3991H8.14286V10.7596Z" fill="url(#paint0_linear_39_729)"/>
<defs>
<linearGradient id="paint0_linear_39_729" x1="38" y1="1.26667" x2="-5.67509" y2="19.0799" gradientUnits="userSpaceOnUse">
<stop offset="0.0418119" stop-color="#BDD4DC"/>
<stop offset="0.574085" stop-color="#C7DEDB"/>
<stop offset="0.913435" stop-color="#EBE4D4"/>
</linearGradient>
</defs>
</svg>
