<svg width="38" height="28" viewBox="0 0 38 28" fill="none" xmlns="http://www.w3.org/2000/svg">
<path d="M32.1684 2.32221C29.746 1.24895 27.1494 0.45567 24.4341 0.00458885C24.4099 2.81256e-05 24.3848 0.00296722 24.3624 0.0129997C24.34 0.0230322 24.3213 0.0396617 24.309 0.0605852C23.9765 0.634548 23.606 1.38272 23.3463 1.97379C20.4665 1.55108 17.5387 1.55108 14.6588 1.97379C14.3696 1.31873 14.0435 0.680004 13.6819 0.0605852C13.6697 0.0394041 13.6512 0.0223984 13.6288 0.0118375C13.6065 0.00127651 13.5814 -0.00233756 13.5569 0.00147779C10.8431 0.452559 8.24652 1.24584 5.82251 2.32066C5.80166 2.32925 5.78398 2.34391 5.77184 2.36266C0.844653 9.47886 -0.505891 16.4193 0.157506 23.2726C0.159352 23.2894 0.164656 23.3056 0.173094 23.3204C0.181532 23.3351 0.192928 23.3479 0.206588 23.3582C3.08246 25.4151 6.29011 26.9821 9.69523 27.9934C9.71897 28.0006 9.74436 28.0006 9.76808 27.9934C9.79181 27.9861 9.81277 27.9721 9.82823 27.953C10.561 26.9903 11.2103 25.9689 11.7693 24.8996C11.7771 24.885 11.7816 24.8689 11.7825 24.8525C11.7833 24.836 11.7806 24.8195 11.7744 24.8042C11.7683 24.7889 11.7589 24.775 11.7468 24.7635C11.7347 24.7521 11.7203 24.7433 11.7044 24.7379C10.6816 24.3595 9.69062 23.9028 8.74051 23.3722C8.72344 23.3626 8.70905 23.349 8.69864 23.3326C8.68823 23.3162 8.68213 23.2976 8.68087 23.2783C8.67962 23.259 8.68325 23.2398 8.69145 23.2222C8.69965 23.2046 8.71215 23.1894 8.72784 23.1777C8.92734 23.0331 9.12683 22.8822 9.31683 22.7313C9.33393 22.7178 9.35453 22.7091 9.37633 22.7064C9.39814 22.7036 9.42029 22.7069 9.44032 22.7158C15.6579 25.4596 22.3916 25.4596 28.5364 22.7158C28.5564 22.7063 28.5788 22.7027 28.6009 22.7051C28.6231 22.7076 28.644 22.7161 28.6614 22.7298C28.8514 22.8822 29.0493 23.0331 29.2504 23.1777C29.2663 23.1891 29.279 23.2042 29.2874 23.2216C29.2959 23.239 29.2998 23.2582 29.2989 23.2775C29.2979 23.2967 29.2922 23.3155 29.282 23.332C29.2719 23.3485 29.2578 23.3623 29.2409 23.3722C28.2941 23.9072 27.3093 24.3599 26.2754 24.7363C26.2595 24.742 26.2451 24.7509 26.233 24.7625C26.2209 24.7741 26.2115 24.7881 26.2053 24.8035C26.1992 24.819 26.1965 24.8355 26.1974 24.8521C26.1983 24.8687 26.2027 24.8849 26.2105 24.8996C26.7805 25.9682 27.4328 26.9855 28.15 27.9514C28.1649 27.9712 28.1857 27.9861 28.2095 27.9939C28.2333 28.0016 28.259 28.002 28.283 27.995C31.694 26.9865 34.9069 25.4188 37.7859 23.3582C37.8 23.3485 37.8118 23.336 37.8205 23.3215C37.8292 23.3071 37.8347 23.2909 37.8366 23.2742C38.6282 15.3507 36.5098 8.46626 32.2175 2.36577C32.207 2.34594 32.1896 2.33049 32.1684 2.32221ZM12.6987 19.0993C10.8273 19.0993 9.28358 17.4366 9.28358 15.3974C9.28358 13.3566 10.7972 11.6954 12.6987 11.6954C14.6145 11.6954 16.144 13.3706 16.1139 15.3974C16.1139 17.4381 14.6003 19.0993 12.6987 19.0993ZM25.3254 19.0993C23.4524 19.0993 21.9103 17.4366 21.9103 15.3974C21.9103 13.3566 23.4223 11.6954 25.3254 11.6954C27.2412 11.6954 28.7707 13.3706 28.7406 15.3974C28.7406 17.4381 27.2428 19.0993 25.3254 19.0993Z" fill="url(#paint0_linear_39_719)"/>
<defs>
<linearGradient id="paint0_linear_39_719" x1="7.2267e-07" y1="0.933332" x2="38.9933" y2="22.517" gradientUnits="userSpaceOnUse">
<stop offset="0.0418119" stop-color="#BDD4DC"/>
<stop offset="0.574085" stop-color="#C7DEDB"/>
<stop offset="0.913435" stop-color="#EBE4D4"/>
</linearGradient>
</defs>
</svg>
