<svg width="35" height="29" viewBox="0 0 35 29" fill="none" xmlns="http://www.w3.org/2000/svg">
<path d="M35 3.43993C33.7129 4.02123 32.3302 4.41401 30.8766 4.59154C32.3765 3.67684 33.4986 2.23721 34.0335 0.541269C32.6244 1.39435 31.0822 1.99483 29.4739 2.3166C28.3924 1.13964 26.9599 0.359535 25.3989 0.0973956C23.8378 -0.164744 22.2355 0.10575 20.8407 0.866882C19.4459 1.62801 18.3367 2.8372 17.6852 4.30671C17.0338 5.77621 16.8765 7.42382 17.238 8.99373C14.3827 8.84761 11.5895 8.09122 9.03967 6.77363C6.48981 5.45605 4.24026 3.60672 2.43702 1.34567C1.82044 2.42972 1.46591 3.68659 1.46591 5.02516C1.46522 6.23018 1.75637 7.41674 2.31352 8.47956C2.87067 9.54239 3.67659 10.4486 4.65978 11.1178C3.51954 11.0809 2.40446 10.7668 1.40734 10.2019V10.2962C1.40722 11.9862 1.9808 13.6243 3.03076 14.9324C4.08071 16.2406 5.54237 17.1382 7.16771 17.4729C6.10995 17.7647 5.00096 17.8077 3.92451 17.5986C4.38309 19.0528 5.27635 20.3245 6.47925 21.2355C7.68215 22.1466 9.13446 22.6515 10.6329 22.6795C8.08924 24.7147 4.94786 25.8187 1.71408 25.8138C1.14126 25.814 0.56891 25.7799 0 25.7117C3.28247 27.8628 7.10349 29.0044 11.0059 29C24.2161 29 31.4377 17.8484 31.4377 8.17676C31.4377 7.86255 31.43 7.54519 31.4161 7.23097C32.8209 6.19558 34.0334 4.91345 34.9969 3.44464L35 3.43993Z" fill="url(#paint0_linear_39_720)"/>
<defs>
<linearGradient id="paint0_linear_39_720" x1="6.65617e-07" y1="0.966666" x2="37.7676" y2="19.5575" gradientUnits="userSpaceOnUse">
<stop offset="0.0418119" stop-color="#BDD4DC"/>
<stop offset="0.574085" stop-color="#C7DEDB"/>
<stop offset="0.913435" stop-color="#EBE4D4"/>
</linearGradient>
</defs>
</svg>
