<svg width="1440" height="7739" viewBox="0 0 1440 7739" fill="none" xmlns="http://www.w3.org/2000/svg">
<g clip-path="url(#clip0_39_586)">
<rect width="1440" height="7739" fill="#8AACC9"/>
<g opacity="0.7" filter="url(#filter0_f_39_586)">
<path d="M1272 223.716L1234.36 210.588L1272 197.459V223.716Z" stroke="#B7D4DA" stroke-width="20"/>
</g>
<g opacity="0.7" filter="url(#filter1_f_39_586)">
<path d="M358 727.384L254.403 691.302L358 655.22V727.384Z" stroke="#B4D3DB" stroke-width="20"/>
</g>
<g filter="url(#filter2_f_39_586)">
<path d="M149 172.238L111.362 159.11L149 145.981V172.238Z" stroke="#B7D4DA" stroke-width="20"/>
</g>
<rect y="80" width="1440" height="673" fill="#B4D3DB"/>
<path d="M531.475 217.041C481.007 240.68 471.402 299.919 532.503 311.73C570.943 319.16 611.547 314.696 645.383 299.319C679.219 283.942 703.515 258.912 712.926 229.736C729.979 176.867 656.711 160.86 598.239 186.624L567.466 200.183L531.475 217.041Z" fill="url(#paint0_linear_39_586)"/>
<rect x="-54" width="1519" height="9852" fill="url(#paint1_linear_39_586)"/>
<path opacity="0.1" d="M918.524 3273.73C1036.81 3068.21 974.857 2802.43 766.85 2688.58C572.082 2581.98 380.855 2497.82 154.237 2427.41C-129.491 2339.26 -322.786 2342.57 -383.127 2436.62C-443.467 2530.68 -365.91 2707.76 -167.517 2928.92C-27.2437 3085.29 84.7616 3232.12 315.802 3397.96C511.321 3538.3 778.887 3469.75 918.524 3273.73Z" fill="url(#paint2_linear_39_586)"/>
<path opacity="0.1" d="M370.376 6642.88C326.425 6844.69 448 7048.96 650.714 7088.57C840.524 7125.66 1021.47 7145.05 1228.17 7143.68C1486.95 7141.98 1646.53 7088.21 1671.8 6994.21C1697.06 6900.22 1585.95 6773.69 1362.89 6642.46C1205.18 6549.68 1073.46 6457.36 837.902 6380.68C638.564 6315.78 434.552 6443.31 370.376 6642.88Z" fill="url(#paint3_linear_39_586)"/>
<path opacity="0.1" d="M1093.48 7366.09C1100.89 7129.08 920.926 6923.92 683.81 6921.6C461.787 6919.43 253.469 6935.39 20.4269 6980.16C-271.344 7036.21 -440.237 7130.28 -449.099 7241.67C-457.961 7353.06 -306.066 7472.65 -26.8283 7574.13C170.606 7645.89 338.613 7722.55 620.554 7759.85C859.149 7791.42 1062.78 7604.8 1093.48 7366.09Z" fill="url(#paint4_linear_39_586)"/>
<path opacity="0.1" d="M863.225 6753.03C791.035 6559.51 578.294 6453.46 386.367 6529.78C206.657 6601.25 43.9726 6682.81 -129.142 6795.76C-345.882 6937.16 -451.022 7068.7 -421.433 7161.43C-391.843 7254.15 -229.947 7300.48 28.6392 7290.2C211.472 7282.94 372.201 7289.34 611.803 7226.44C814.568 7173.2 917.189 6955.6 863.225 6753.03Z" fill="url(#paint5_linear_39_586)"/>
<path opacity="0.1" d="M579.093 1735.87C780.454 1596.79 840.556 1321.63 697.188 1123.3C562.944 937.593 422.049 774.374 242.074 608.279C16.7437 400.328 -164.864 317.713 -262.799 378.609C-360.734 439.505 -366.973 638.924 -280.143 932.995C-218.75 1140.92 -179.471 1327.41 -37.6872 1584.41C82.2977 1801.89 362.047 1856.63 579.093 1735.87V1735.87V1735.87Z" fill="url(#paint6_linear_39_586)"/>
<path opacity="0.1" d="M939.219 1284.37C1023.32 1140.15 980.764 952.775 834.77 871.785C698.067 795.95 563.768 735.931 404.496 685.454C205.087 622.256 68.9821 623.818 26.1227 689.795C-16.7367 755.772 37.1604 880.76 175.957 1037.26C274.093 1147.92 352.365 1251.74 514.369 1369.43C651.466 1469.02 840.122 1421.82 939.219 1284.37V1284.37V1284.37Z" fill="url(#paint7_linear_39_586)"/>
<path opacity="0.1" d="M1126.57 900.05C1158.21 758.11 1073.32 613.873 930.734 585.287C797.223 558.521 669.891 544.245 524.359 544.494C342.152 544.805 229.613 582.111 211.501 648.204C193.388 714.297 271.186 803.763 427.778 896.921C538.496 962.788 630.922 1028.24 796.503 1083.04C936.626 1129.42 1080.7 1040.34 1126.57 900.05V900.05V900.05Z" fill="url(#paint8_linear_39_586)"/>
<path opacity="0.1" d="M2055.93 2059.5C1947.7 1883.77 1718.62 1820.99 1545.26 1932.96C1382.92 2037.81 1239.24 2149.26 1091.4 2293.49C906.307 2474.07 828.703 2623.37 875.661 2708.54C922.618 2793.71 1090.29 2807.78 1341.79 2747.65C1519.61 2705.13 1678.41 2680.29 1901.11 2572.24C2089.57 2480.81 2148.05 2247.63 2055.93 2059.5Z" fill="url(#paint9_linear_39_586)"/>
<path opacity="0.1" d="M1722.31 1832.78C1587.03 1710.07 1376.85 1713.14 1257.07 1851.02C1144.92 1980.13 1050.24 2110.25 960.108 2269.26C847.263 2468.35 818.077 2614.37 878.97 2675.19C939.864 2736.02 1085.85 2706.68 1284.81 2593.61C1425.49 2513.67 1554.35 2453.44 1717.02 2306.74C1854.69 2182.6 1846.95 1969.99 1722.31 1832.78Z" fill="url(#paint10_linear_39_586)"/>
<path opacity="0.1" d="M1247.83 1661.62C1098.3 1607.31 929.861 1679.09 878.769 1829.76C830.928 1970.83 797.507 2106.96 777.282 2264.87C751.959 2462.59 776.582 2589.93 845.733 2618.89C914.885 2647.85 1022.9 2576.05 1146.02 2419.29C1233.07 2308.45 1317.09 2217.4 1399.87 2045.48C1469.91 1900 1393.56 1731.15 1247.83 1661.62Z" fill="url(#paint11_linear_39_586)"/>
<path opacity="0.1" d="M-191.59 3623.49C-295.127 3773.95 -264.009 3981.84 -111.36 4082.12C31.5745 4176.02 173.179 4252.47 342.807 4320.55C555.181 4405.79 703.788 4415.21 755.935 4346.74C808.083 4278.26 759.499 4137.51 620.872 3955.43C522.856 3826.7 445.953 3707.04 278.837 3565.41C137.414 3445.57 -72.2515 3481.64 -191.59 3623.49Z" fill="url(#paint12_linear_39_586)"/>
<path opacity="0.1" d="M-297.822 4116.58C-331.675 4272.03 -238.033 4429.37 -81.8955 4459.87C64.3038 4488.44 203.677 4503.38 362.881 4502.33C562.207 4501.01 685.12 4459.6 704.58 4387.2C724.041 4314.8 638.455 4217.34 466.651 4116.27C345.177 4044.8 243.716 3973.7 62.2842 3914.63C-91.2536 3864.65 -248.391 3962.87 -297.822 4116.58Z" fill="url(#paint13_linear_39_586)"/>
<path opacity="0.1" d="M955.41 5024.49C851.873 5174.95 882.991 5382.84 1035.64 5483.12C1178.57 5577.02 1320.18 5653.47 1489.81 5721.55C1702.18 5806.79 1850.79 5816.21 1902.94 5747.74C1955.08 5679.26 1906.5 5538.51 1767.87 5356.43C1669.86 5227.7 1592.95 5108.04 1425.84 4966.41C1284.41 4846.57 1074.75 4882.64 955.41 5024.49Z" fill="url(#paint14_linear_39_586)"/>
<path opacity="0.1" d="M849.178 5517.58C815.325 5673.03 908.967 5830.37 1065.1 5860.87C1211.3 5889.44 1350.68 5904.38 1509.88 5903.33C1709.21 5902.01 1832.12 5860.6 1851.58 5788.2C1871.04 5715.8 1785.45 5618.34 1613.65 5517.27C1492.18 5445.8 1390.72 5374.7 1209.28 5315.63C1055.75 5265.65 898.609 5363.87 849.178 5517.58Z" fill="url(#paint15_linear_39_586)"/>
<g opacity="0.5" filter="url(#filter3_f_39_586)">
<rect x="969" y="2161" width="778" height="1046" rx="207" fill="#94CCDF"/>
</g>
<g opacity="0.5" filter="url(#filter4_f_39_586)">
<rect x="-248" y="3207" width="778" height="802" rx="207" fill="#94CCDF"/>
</g>
<path opacity="0.7" d="M134.552 2478.4L132.918 2498.44L120.651 2500.34L132.918 2501.3L133.663 2522.29L135.258 2501.3L147.563 2500.34L135.258 2498.44L134.552 2478.4Z" fill="white" fill-opacity="0.5"/>
<path opacity="0.7" d="M112.622 2461L111.605 2473.48L103.968 2474.67L111.605 2475.26L112.069 2488.33L113.062 2475.26L120.723 2474.67L113.062 2473.48L112.622 2461Z" fill="white" fill-opacity="0.5"/>
<path d="M1419.99 3809.37C1419.27 3809.29 1418.62 3809.05 1418.04 3808.64C1417.49 3808.22 1417.06 3807.69 1416.77 3807.06C1416.48 3806.4 1416.37 3805.68 1416.46 3804.9C1416.54 3804.11 1416.8 3803.44 1417.23 3802.89C1417.65 3802.34 1418.18 3801.92 1418.81 3801.65C1419.47 3801.35 1420.15 3801.25 1420.87 3801.33C1421.6 3801.41 1422.23 3801.66 1422.79 3802.08C1423.37 3802.49 1423.8 3803.01 1424.1 3803.64C1424.39 3804.28 1424.5 3804.99 1424.41 3805.77C1424.33 3806.55 1424.07 3807.23 1423.64 3807.81C1423.21 3808.36 1422.67 3808.79 1422.02 3809.08C1421.39 3809.36 1420.71 3809.45 1419.99 3809.37ZM1456.57 3818.7C1454.86 3818.51 1453.29 3818.06 1451.86 3817.35C1450.46 3816.61 1449.28 3815.67 1448.31 3814.51C1447.34 3813.35 1446.63 3812.04 1446.17 3810.57C1445.73 3809.11 1445.6 3807.54 1445.78 3805.86C1445.97 3804.19 1446.43 3802.68 1447.18 3801.35C1447.95 3800.02 1448.93 3798.89 1450.13 3797.97C1451.34 3797.05 1452.71 3796.4 1454.24 3796.01C1455.76 3795.59 1457.4 3795.48 1459.13 3795.67C1461.06 3795.89 1462.77 3796.42 1464.24 3797.26C1465.74 3798.09 1466.94 3799.21 1467.86 3800.62L1464.22 3803.31C1463.55 3802.36 1462.77 3801.62 1461.89 3801.09C1461 3800.55 1460.01 3800.21 1458.91 3800.09C1457.87 3799.98 1456.89 3800.04 1455.99 3800.29C1455.08 3800.53 1454.28 3800.94 1453.57 3801.5C1452.86 3802.07 1452.28 3802.77 1451.83 3803.6C1451.39 3804.43 1451.12 3805.37 1451 3806.43C1450.88 3807.49 1450.95 3808.48 1451.19 3809.39C1451.46 3810.29 1451.87 3811.1 1452.44 3811.81C1453 3812.51 1453.7 3813.08 1454.54 3813.52C1455.37 3813.95 1456.3 3814.23 1457.34 3814.34C1458.45 3814.46 1459.49 3814.36 1460.47 3814.04C1461.45 3813.7 1462.37 3813.12 1463.23 3812.32L1466.2 3815.73C1465 3816.91 1463.58 3817.75 1461.94 3818.26C1460.31 3818.77 1458.53 3818.91 1456.57 3818.7ZM1468.53 3819.63L1470.41 3802.51L1475.15 3803.03L1474.62 3807.87L1474.11 3806.4C1474.75 3805.24 1475.66 3804.42 1476.86 3803.93C1478.05 3803.42 1479.45 3803.25 1481.06 3803.42L1480.56 3808C1480.35 3807.96 1480.16 3807.93 1479.99 3807.91C1479.83 3807.87 1479.65 3807.84 1479.46 3807.82C1478.1 3807.67 1476.95 3807.94 1476.02 3808.63C1475.11 3809.31 1474.56 3810.46 1474.38 3812.09L1473.5 3820.17L1468.53 3819.63ZM1483.75 3827.8C1482.86 3827.7 1482 3827.47 1481.16 3827.1C1480.32 3826.72 1479.65 3826.26 1479.15 3825.72L1481.35 3822.38C1481.7 3822.77 1482.1 3823.08 1482.57 3823.32C1483.06 3823.57 1483.54 3823.72 1484.03 3823.77C1484.73 3823.85 1485.3 3823.74 1485.74 3823.45C1486.2 3823.17 1486.64 3822.68 1487.07 3821.95L1488.19 3819.95L1488.63 3819.45L1496.39 3805.36L1501.16 3805.89L1491.43 3823.2C1490.73 3824.52 1489.98 3825.53 1489.17 3826.24C1488.38 3826.94 1487.54 3827.41 1486.63 3827.63C1485.75 3827.86 1484.79 3827.91 1483.75 3827.8ZM1487.31 3822.36L1481.63 3803.74L1486.75 3804.31L1491.09 3819.27L1487.31 3822.36ZM1510.99 3824.54C1509.54 3824.38 1508.32 3823.93 1507.31 3823.17C1506.29 3822.42 1505.55 3821.36 1505.08 3820C1504.63 3818.62 1504.51 3816.93 1504.73 3814.94C1504.95 3812.92 1505.42 3811.3 1506.14 3810.07C1506.85 3808.84 1507.78 3807.97 1508.93 3807.45C1510.09 3806.93 1511.41 3806.75 1512.92 3806.92C1514.53 3807.1 1515.93 3807.63 1517.12 3808.51C1518.34 3809.37 1519.24 3810.5 1519.84 3811.9C1520.46 3813.3 1520.67 3814.89 1520.48 3816.67C1520.28 3818.47 1519.73 3819.99 1518.82 3821.22C1517.93 3822.45 1516.8 3823.36 1515.43 3823.94C1514.08 3824.52 1512.6 3824.72 1510.99 3824.54ZM1500.22 3829.35L1502.78 3806.06L1507.52 3806.58L1507.13 3810.08L1506.48 3815.16L1506.24 3820.26L1505.18 3829.89L1500.22 3829.35ZM1510.57 3820.38C1511.4 3820.47 1512.15 3820.36 1512.83 3820.04C1513.53 3819.74 1514.11 3819.25 1514.57 3818.59C1515.05 3817.92 1515.35 3817.09 1515.45 3816.12C1515.56 3815.12 1515.45 3814.25 1515.13 3813.5C1514.82 3812.76 1514.36 3812.16 1513.75 3811.71C1513.15 3811.26 1512.44 3810.99 1511.61 3810.9C1510.79 3810.81 1510.02 3810.92 1509.32 3811.23C1508.63 3811.54 1508.05 3812.02 1507.59 3812.68C1507.13 3813.33 1506.85 3814.16 1506.74 3815.16C1506.63 3816.13 1506.73 3817 1507.03 3817.77C1507.33 3818.51 1507.79 3819.11 1508.41 3819.56C1509.03 3820.01 1509.75 3820.29 1510.57 3820.38ZM1529.43 3826.57C1527.41 3826.34 1525.9 3825.66 1524.89 3824.52C1523.88 3823.36 1523.48 3821.76 1523.71 3819.73L1525.35 3804.71L1530.32 3805.26L1528.67 3820.21C1528.6 3820.93 1528.72 3821.51 1529.06 3821.95C1529.4 3822.38 1529.9 3822.63 1530.56 3822.7C1531.34 3822.78 1532.03 3822.65 1532.63 3822.28L1533.58 3825.93C1533.04 3826.23 1532.39 3826.44 1531.65 3826.55C1530.93 3826.65 1530.19 3826.65 1529.43 3826.57ZM1521.84 3812.41L1522.26 3808.59L1534.12 3809.89L1533.7 3813.71L1521.84 3812.41ZM1543.46 3828.11C1541.64 3827.91 1540.06 3827.35 1538.72 3826.43C1537.4 3825.51 1536.4 3824.35 1535.72 3822.94C1535.06 3821.52 1534.83 3819.96 1535.01 3818.26C1535.2 3816.54 1535.77 3815.07 1536.72 3813.85C1537.69 3812.6 1538.92 3811.68 1540.4 3811.09C1541.91 3810.49 1543.57 3810.28 1545.39 3810.48C1547.2 3810.68 1548.77 3811.24 1550.1 3812.16C1551.44 3813.06 1552.44 3814.21 1553.1 3815.61C1553.77 3817.01 1554 3818.59 1553.81 3820.32C1553.62 3822.02 1553.06 3823.49 1552.1 3824.74C1551.15 3825.97 1549.93 3826.88 1548.42 3827.49C1546.92 3828.1 1545.26 3828.3 1543.46 3828.11ZM1543.91 3824.03C1544.73 3824.13 1545.5 3824.02 1546.2 3823.71C1546.9 3823.4 1547.47 3822.91 1547.93 3822.26C1548.39 3821.58 1548.68 3820.75 1548.78 3819.77C1548.89 3818.78 1548.8 3817.91 1548.49 3817.17C1548.19 3816.42 1547.73 3815.83 1547.11 3815.37C1546.5 3814.92 1545.77 3814.65 1544.95 3814.56C1544.12 3814.46 1543.36 3814.57 1542.66 3814.88C1541.96 3815.19 1541.37 3815.68 1540.89 3816.33C1540.43 3816.99 1540.15 3817.82 1540.04 3818.81C1539.93 3819.79 1540.03 3820.66 1540.33 3821.42C1540.66 3822.16 1541.13 3822.76 1541.74 3823.22C1542.36 3823.67 1543.08 3823.94 1543.91 3824.03Z" fill="white"/>
<path opacity="0.7" d="M294.946 3014.41L294.867 3034.51L282.776 3037.85L295.088 3037.35L297.456 3058.11L297.423 3037.07L309.626 3034.68L297.202 3034.23L294.946 3014.41Z" fill="white"/>
<path opacity="0.7" d="M159.626 2630L158.609 2642.48L150.972 2643.67L158.609 2644.26L159.073 2657.33L160.066 2644.26L167.727 2643.67L160.066 2642.48L159.626 2630Z" fill="white" fill-opacity="0.5"/>
</g>
<defs>
<filter id="filter0_f_39_586" x="1177" y="156.38" width="132" height="108.416" filterUnits="userSpaceOnUse" color-interpolation-filters="sRGB">
<feFlood flood-opacity="0" result="BackgroundImageFix"/>
<feBlend mode="normal" in="SourceGraphic" in2="BackgroundImageFix" result="shape"/>
<feGaussianBlur stdDeviation="13.5" result="effect1_foregroundBlur_39_586"/>
</filter>
<filter id="filter1_f_39_586" x="197" y="614.148" width="198" height="154.308" filterUnits="userSpaceOnUse" color-interpolation-filters="sRGB">
<feFlood flood-opacity="0" result="BackgroundImageFix"/>
<feBlend mode="normal" in="SourceGraphic" in2="BackgroundImageFix" result="shape"/>
<feGaussianBlur stdDeviation="13.5" result="effect1_foregroundBlur_39_586"/>
</filter>
<filter id="filter2_f_39_586" x="54" y="104.902" width="132" height="108.416" filterUnits="userSpaceOnUse" color-interpolation-filters="sRGB">
<feFlood flood-opacity="0" result="BackgroundImageFix"/>
<feBlend mode="normal" in="SourceGraphic" in2="BackgroundImageFix" result="shape"/>
<feGaussianBlur stdDeviation="13.5" result="effect1_foregroundBlur_39_586"/>
</filter>
<filter id="filter3_f_39_586" x="669" y="1861" width="1378" height="1646" filterUnits="userSpaceOnUse" color-interpolation-filters="sRGB">
<feFlood flood-opacity="0" result="BackgroundImageFix"/>
<feBlend mode="normal" in="SourceGraphic" in2="BackgroundImageFix" result="shape"/>
<feGaussianBlur stdDeviation="150" result="effect1_foregroundBlur_39_586"/>
</filter>
<filter id="filter4_f_39_586" x="-548" y="2907" width="1378" height="1402" filterUnits="userSpaceOnUse" color-interpolation-filters="sRGB">
<feFlood flood-opacity="0" result="BackgroundImageFix"/>
<feBlend mode="normal" in="SourceGraphic" in2="BackgroundImageFix" result="shape"/>
<feGaussianBlur stdDeviation="150" result="effect1_foregroundBlur_39_586"/>
</filter>
<linearGradient id="paint0_linear_39_586" x1="675.5" y1="305.217" x2="590.919" y2="161.98" gradientUnits="userSpaceOnUse">
<stop stop-color="#E3CFC9"/>
<stop offset="1" stop-color="#E3CFC9" stop-opacity="0"/>
</linearGradient>
<linearGradient id="paint1_linear_39_586" x1="-54" y1="328.4" x2="1974.25" y2="455.945" gradientUnits="userSpaceOnUse">
<stop offset="0.0418119" stop-color="#BDD4DC"/>
<stop offset="0.574085" stop-color="#C7DEDB"/>
<stop offset="0.913435" stop-color="#EBE4D4"/>
</linearGradient>
<linearGradient id="paint2_linear_39_586" x1="-574.577" y1="2830.57" x2="222.69" y2="2044.35" gradientUnits="userSpaceOnUse">
<stop offset="0.0418119" stop-color="#BDD4DC"/>
<stop offset="0.574085" stop-color="#C7DEDB"/>
<stop offset="0.913435" stop-color="#EBE4D4"/>
</linearGradient>
<linearGradient id="paint3_linear_39_586" x1="1673.34" y1="6988.48" x2="-397.064" y2="6506.12" gradientUnits="userSpaceOnUse">
<stop stop-color="#89C6F8"/>
<stop offset="1" stop-color="#5281A7" stop-opacity="0"/>
</linearGradient>
<linearGradient id="paint4_linear_39_586" x1="-449.639" y1="7248.46" x2="1988.4" y2="7359.96" gradientUnits="userSpaceOnUse">
<stop stop-color="#89C6F8"/>
<stop offset="1" stop-color="#5281A7" stop-opacity="0"/>
</linearGradient>
<linearGradient id="paint5_linear_39_586" x1="-419.629" y1="7167.08" x2="1582.69" y2="6452.96" gradientUnits="userSpaceOnUse">
<stop stop-color="#89C6F8"/>
<stop offset="1" stop-color="#5281A7" stop-opacity="0"/>
</linearGradient>
<linearGradient id="paint6_linear_39_586" x1="-268.768" y1="382.32" x2="1132.55" y2="2475.29" gradientUnits="userSpaceOnUse">
<stop stop-color="#5281A7"/>
<stop offset="1" stop-color="#5281A7" stop-opacity="0"/>
</linearGradient>
<linearGradient id="paint7_linear_39_586" x1="23.5105" y1="693.816" x2="1495.22" y2="1580.83" gradientUnits="userSpaceOnUse">
<stop stop-color="#89F8C2"/>
<stop offset="1" stop-color="#5281A7" stop-opacity="0"/>
</linearGradient>
<linearGradient id="paint8_linear_39_586" x1="210.397" y1="652.232" x2="1666.43" y2="998.977" gradientUnits="userSpaceOnUse">
<stop stop-color="#89C6F8"/>
<stop offset="1" stop-color="#5281A7" stop-opacity="0"/>
</linearGradient>
<linearGradient id="paint9_linear_39_586" x1="878.523" y1="2713.73" x2="2703.12" y2="1626.06" gradientUnits="userSpaceOnUse">
<stop stop-color="#7FA5C4"/>
<stop offset="1" stop-color="#5281A7" stop-opacity="0"/>
</linearGradient>
<linearGradient id="paint10_linear_39_586" x1="882.682" y1="2678.9" x2="2165.65" y2="1304.94" gradientUnits="userSpaceOnUse">
<stop stop-color="#89C6F8"/>
<stop offset="1" stop-color="#5281A7" stop-opacity="0"/>
</linearGradient>
<linearGradient id="paint11_linear_39_586" x1="849.948" y1="2620.66" x2="1431.18" y2="1089.88" gradientUnits="userSpaceOnUse">
<stop stop-color="#89C6F8"/>
<stop offset="1" stop-color="#5281A7" stop-opacity="0"/>
</linearGradient>
<linearGradient id="paint12_linear_39_586" x1="759.114" y1="4342.56" x2="-773.918" y2="3254.64" gradientUnits="userSpaceOnUse">
<stop stop-color="#89C6F8"/>
<stop offset="1" stop-color="#5281A7" stop-opacity="0"/>
</linearGradient>
<linearGradient id="paint13_linear_39_586" x1="705.766" y1="4382.78" x2="-888.932" y2="4011.25" gradientUnits="userSpaceOnUse">
<stop stop-color="#89C6F8"/>
<stop offset="1" stop-color="#5281A7" stop-opacity="0"/>
</linearGradient>
<linearGradient id="paint14_linear_39_586" x1="1906.11" y1="5743.56" x2="373.082" y2="4655.64" gradientUnits="userSpaceOnUse">
<stop stop-color="#89C6F8"/>
<stop offset="1" stop-color="#5281A7" stop-opacity="0"/>
</linearGradient>
<linearGradient id="paint15_linear_39_586" x1="1852.77" y1="5783.78" x2="258.068" y2="5412.25" gradientUnits="userSpaceOnUse">
<stop stop-color="#89C6F8"/>
<stop offset="1" stop-color="#5281A7" stop-opacity="0"/>
</linearGradient>
<clipPath id="clip0_39_586">
<rect width="1440" height="7739" fill="white"/>
</clipPath>
</defs>
</svg>
