<svg width="521" height="462" viewBox="0 0 521 462" fill="none" xmlns="http://www.w3.org/2000/svg">
<path opacity="0.3" d="M413.922 413.339C468.146 349.164 463.338 252.59 398.013 199.756C336.846 150.284 275.496 108.861 200.938 69.9969C107.59 21.3384 39.9919 10.2816 13.0129 39.2588C-13.966 68.236 1.88451 134.874 57.0777 224.512C96.1019 287.891 125.874 346.157 195.944 418.571C255.242 479.852 352.855 472.857 413.922 413.339Z" fill="url(#paint0_linear_0_1)"/>
<path opacity="0.3" d="M492.678 231.381C507.588 176.036 476.651 117.775 420.999 104.057C368.889 91.2113 318.996 83.3912 261.686 80.9763C189.934 77.9527 144.976 90.6991 136.703 116.411C128.43 142.124 157.519 178.696 217.571 218.082C260.03 245.93 295.294 273.299 359.548 297.738C413.923 318.419 472.193 285.83 492.678 231.381Z" fill="url(#paint1_linear_0_1)"/>
<path opacity="0.3" d="M520.222 87.2059C517.953 37.3314 476.864 -2.83342 427.05 0.506066C380.406 3.63302 336.932 10.3435 288.733 23.502C228.387 39.9766 194.449 62.4493 194.386 85.9765C194.323 109.504 228.14 132.158 288.396 148.956C331.001 160.833 367.507 174.216 427.296 177.498C477.892 180.274 517.628 137.812 520.222 87.2059Z" fill="url(#paint2_linear_0_1)"/>
<defs>
<linearGradient id="paint0_linear_0_1" x1="11.3686" y1="41.0249" x2="663.745" y2="608.617" gradientUnits="userSpaceOnUse">
<stop stop-color="#EBE4D4"/>
<stop offset="1" stop-color="#5281A7" stop-opacity="0"/>
</linearGradient>
<linearGradient id="paint1_linear_0_1" x1="136.199" y1="117.979" x2="703.547" y2="279.657" gradientUnits="userSpaceOnUse">
<stop stop-color="#2B6377"/>
<stop offset="1" stop-color="#5281A7" stop-opacity="0"/>
</linearGradient>
<linearGradient id="paint2_linear_0_1" x1="194.382" y1="87.4104" x2="707.991" y2="71.4791" gradientUnits="userSpaceOnUse">
<stop stop-color="#94CCDF"/>
<stop offset="1" stop-color="#5281A7" stop-opacity="0"/>
</linearGradient>
</defs>
</svg>
