<svg width="911" height="185" viewBox="0 0 911 185" fill="none" xmlns="http://www.w3.org/2000/svg">
<path d="M30.8332 153.482L0.243164 184.302H122.833V153.482H30.8332ZM0.243164 0.301511V5.3615V142.672L30.8332 111.852V5.3615V0.301511H0.243164ZM262.079 107.712C262.079 120.132 257.249 130.942 248.279 139.912C239.309 148.882 228.499 153.482 215.849 153.482C203.199 153.482 192.159 149.112 183.189 139.912C174.449 131.172 170.079 120.362 170.079 107.712V0.301511H139.489V107.712C139.489 128.642 146.849 147.042 161.799 161.992C176.749 176.942 194.919 184.302 215.849 184.302C236.779 184.302 255.179 176.942 270.129 161.992C285.309 147.042 292.669 128.872 292.669 107.712H262.079ZM260.767 43.0815L352.997 135.772L414.637 74.3615V184.302H444.997V0.301511L352.997 92.3015L260.767 0.301511V43.0815ZM477.728 181.772V184.302H600.318V153.482H508.318L477.728 181.772ZM477.728 0.301511L508.318 31.1215H600.318V0.301511H477.728ZM477.728 77.1215V107.712H508.318H600.318V77.1215H508.318H477.728ZM645.948 0.301511V31.1215V184.302H676.768V31.1215H737.948V0.301511H645.948ZM791.252 123.122L818.392 69.0715L845.302 123.122H879.802L818.392 0.301511L726.392 184.302H760.432L776.072 153.482L791.252 123.122ZM894.982 153.712H860.942L876.122 184.302H910.392L894.982 153.712Z" fill="white"/>
</svg>
